<svg width="686" height="551" viewBox="0 0 686 551" fill="none" xmlns="http://www.w3.org/2000/svg">
<path d="M284.02 383.27H0.000152588L7.93016 345.59H292.98L284.02 383.27Z" fill="#F8EA4B"/>
<path d="M409.44 369.38H344.19V411.3H415.91L413.44 426.95H324.98V301.91H412.49L415.91 317.74H344.19V353.72H409.44V369.37V369.38Z" fill="white"/>
<path d="M434.37 426.95V295.07L453.01 291.37V426.95H434.37Z" fill="white"/>
<path d="M314.08 221.8C314.08 230.74 314.28 242.78 314.28 248.8H295.44C295.05 246.43 294.85 240.77 294.85 235.48C289.75 245.51 280.33 250.99 265.22 250.99C247.56 250.99 232.06 242.42 232.06 216.88V160.15L251.29 155.95V213.05C251.29 224.91 255.21 235.67 270.91 235.67C288.18 235.67 294.85 226.91 294.85 204.48V159.81L314.08 155.95V221.8Z" fill="#E60105"/>
<path d="M352.15 221.98C354.7 231.65 362.55 237.12 375.5 237.12C389.24 237.12 394.53 231.83 394.53 223.99C394.53 216.15 390.02 212.13 371.96 207.94C342.53 201.37 336.84 192.98 336.84 180.21C336.84 167.44 347.24 153.76 373.73 153.76C400.22 153.76 410.06 163.68 411.24 176.45L393.55 180.76C392.18 175.29 387.86 167.26 372.95 167.26C359.8 167.26 355.88 173.1 355.88 178.75C355.88 185.32 359.8 188.42 377.66 192.43C408.66 199.18 414.35 208.85 414.35 222.53C414.35 238.77 400.81 250.99 374.71 250.99C348.61 250.99 337.1 245.15 334.54 228.55L352.14 221.98H352.15Z" fill="#E60105"/>
<path d="M435.74 135.7V115.09L454.97 111.12V135.71H435.74V135.7ZM437.17 158.77L454.97 155.95V248.8H435.74L437.17 158.77Z" fill="#E60105"/>
<path d="M82.4001 0.0100098H65.9501L66.2101 199.9C66.2101 199.9 48.0001 194.13 36.2301 196.69C24.4601 199.25 0.000135811 204.94 0.000135811 225.33C-0.0798642 253.86 35.2101 251.4 35.2101 251.4C35.2101 251.4 74.6101 249.7 81.7801 225.27L81.5701 27.22L137.28 106.76L142.23 107.22L142.48 83.58L82.4001 0.0100098ZM37.2101 247.76C35.4001 247.76 33.6301 247.54 31.9401 247.14C34.6301 246.6 37.2101 245.13 39.1401 243.15C42.5901 239.62 48.0001 235.13 47.7401 229.57C47.6101 226.78 47.2501 224.18 45.3901 222.1C44.1701 220.73 42.1401 220.31 40.3301 220.61C40.2601 220.62 40.1901 220.64 40.1101 220.66L40.5801 220.45C36.3101 220.26 32.1901 222.43 29.2001 225.49C26.2101 228.54 24.1901 232.41 22.4301 236.3C21.9601 237.34 21.5001 238.4 21.3701 239.53C21.2901 240.19 21.3501 240.85 21.5001 241.49C17.1001 237.32 14.3501 231.43 14.3501 224.89C14.3501 212.26 24.5901 202.02 37.2201 202.02C49.8501 202.02 60.0901 212.26 60.0901 224.89C60.0901 237.52 49.8501 247.76 37.2201 247.76H37.2101Z" fill="#E60105"/>
<path d="M210.53 0.00999451H194.08L194.34 199.9C194.34 199.9 176.13 194.13 164.36 196.69C152.59 199.25 128.13 204.94 128.13 225.33C128.05 253.86 163.34 251.4 163.34 251.4C163.34 251.4 202.74 249.7 209.19 223.19L208.98 25.14L265.41 106.75L270.36 107.21L270.61 83.57L210.53 0V0.00999451ZM165.35 247.76C163.54 247.76 161.77 247.54 160.08 247.14C162.77 246.6 165.35 245.13 167.28 243.15C170.73 239.62 176.14 235.13 175.88 229.57C175.75 226.78 175.39 224.18 173.53 222.1C172.31 220.73 170.28 220.31 168.47 220.61C168.4 220.62 168.33 220.64 168.25 220.66L168.72 220.45C164.45 220.26 160.33 222.43 157.34 225.49C154.35 228.54 152.33 232.41 150.57 236.3C150.1 237.34 149.64 238.4 149.51 239.53C149.43 240.19 149.49 240.85 149.64 241.49C145.24 237.32 142.49 231.43 142.49 224.89C142.49 212.26 152.73 202.02 165.36 202.02C177.99 202.02 188.23 212.26 188.23 224.89C188.23 237.52 177.99 247.76 165.36 247.76H165.35Z" fill="#E60105"/>
<path d="M45.6401 266.84C45.9601 266.1 47.2001 264.37 48.3601 264.53C49.1201 264.64 49.5601 265.51 49.6501 265.68C50.9401 268.03 61.2801 274.06 71.9201 276.63C74.3101 277.21 91.4101 281.11 108.57 274.11C118.86 269.92 132.5 264.36 135.29 261.68C135.53 261.45 136.55 260.42 137.57 260.64C138.5 260.84 139.18 262.04 139.26 263.05C139.42 265.05 137.25 266.74 136.24 267.51C125.71 275.5 120.45 279.49 118.46 280.46C109.13 285.03 104.47 287.31 97.4301 288.62C95.6101 288.96 73.8901 292.66 56.2501 280.2C51.0201 276.5 44.2601 270.06 45.6301 266.84H45.6401Z" fill="#E60105"/>
<path d="M500.97 205.42C494.05 204 486.94 207.31 481.57 211.9C474.62 217.84 469.59 226.34 469.05 235.47C468.51 244.6 472.97 254.16 480.98 258.57C490.08 263.58 501.4 261.33 511.18 257.84C529.38 251.34 544.79 245.14 561.21 234.96C552.14 251.72 538.8 274.74 534.5 284.33C527.31 300.35 508.56 338.45 494.81 380.63C498.47 381 503.75 380.52 507.42 380.89C512.88 363.93 523.79 336.22 529.26 323.65C537.55 304.58 544.43 287.91 563.22 254.76C588.49 210.17 589.5 205.99 589.5 205.99C586.42 206.57 583.87 200.65 580.76 201.02C576.28 201.55 572.32 209.91 569.17 213.14C555.71 226.93 543.62 234.97 520.83 241.7C525.12 235.44 529.9 231.23 528.14 223.84C527.37 220.61 525.44 217.75 523.19 215.31C518.44 210.14 512.09 206.47 505.24 204.93C499.43 203.62 492.52 204.2 488.73 208.79" fill="#E60105"/>
<path d="M490.08 395.18C484.07 393.94 477.88 396.83 473.22 400.82C467.18 405.99 462.8 413.38 462.33 421.31C461.86 429.24 465.74 437.56 472.7 441.39C480.61 445.74 490.45 443.79 498.96 440.76C514.78 435.11 531.63 425.22 545.91 416.36C538.02 430.93 535.25 433.58 531.51 441.91C525.26 455.84 496.68 510.85 484.72 547.52C487.91 547.84 492.41 547.24 495.59 547.56C500.34 532.81 505.74 519.73 512.36 505.72C526.4 476.02 532.72 458.99 544.2 438.07C565.65 399 567.05 395.67 567.05 395.67C564.37 396.18 562.78 393.07 560.08 393.4C556.18 393.86 552.11 399.08 549.37 401.89C537.67 413.88 522.48 421.73 507.57 429.38C511.3 423.94 515.22 417.61 513.69 411.19C513.02 408.38 511.34 405.9 509.38 403.77C505.25 399.28 499.73 396.09 493.77 394.75C488.72 393.61 482.71 394.11 479.41 398.11" fill="white"/>
<path d="M608.53 397.94C602.52 396.7 596.33 399.59 591.67 403.58C585.63 408.75 581.25 416.14 580.78 424.07C580.31 432 584.19 440.32 591.15 444.15C599.06 448.5 608.9 446.55 617.41 443.52C633.23 437.87 650.08 427.98 664.36 419.12C656.47 433.69 653.7 436.34 649.96 444.67C643.71 458.6 615.13 513.61 603.17 550.28C606.36 550.6 611.2 550.17 614.39 550.49C619.14 535.74 624.19 522.49 630.81 508.48C644.85 478.78 651.17 461.75 662.65 440.83C684.1 401.76 685.5 398.43 685.5 398.43C682.82 398.94 681.23 395.83 678.53 396.16C674.63 396.62 670.56 401.84 667.82 404.65C656.12 416.64 640.93 424.49 626.02 432.14C629.75 426.7 633.67 420.37 632.14 413.95C631.47 411.14 629.79 408.66 627.83 406.53C623.7 402.04 618.18 398.85 612.22 397.51C607.17 396.37 601.16 396.87 597.86 400.87" fill="white"/>
</svg>
