<svg width="600" height="368" viewBox="0 0 600 368" fill="none" xmlns="http://www.w3.org/2000/svg">
<path d="M314.09 221.8C314.09 230.74 314.29 242.78 314.29 248.8H295.45C295.06 246.43 294.86 240.77 294.86 235.48C289.76 245.51 280.34 250.99 265.23 250.99C247.57 250.99 232.07 242.42 232.07 216.88V160.15L251.3 155.95V213.05C251.3 224.91 255.22 235.67 270.92 235.67C288.19 235.67 294.86 226.91 294.86 204.48V159.81L314.09 155.95V221.8Z" fill="#E60105"/>
<path d="M352.16 221.99C354.71 231.66 362.56 237.13 375.51 237.13C389.25 237.13 394.54 231.84 394.54 224C394.54 216.16 390.03 212.14 371.97 207.95C342.54 201.38 336.85 192.99 336.85 180.22C336.85 167.45 347.25 153.77 373.74 153.77C400.23 153.77 410.07 163.69 411.25 176.46L393.56 180.77C392.19 175.3 387.87 167.27 372.96 167.27C359.81 167.27 355.89 173.11 355.89 178.76C355.89 185.33 359.81 188.43 377.67 192.44C408.67 199.19 414.36 208.86 414.36 222.54C414.36 238.78 400.82 251 374.72 251C348.62 251 337.11 245.16 334.55 228.56L352.15 221.99H352.16Z" fill="#E60105"/>
<path d="M435.74 135.7V115.09L454.97 111.12V135.71H435.74V135.7ZM437.18 158.77L454.98 155.95V248.8H435.75L437.18 158.77Z" fill="#E60105"/>
<path d="M82.4001 0.0100098H65.9501L66.2101 199.9C66.2101 199.9 48.0001 194.13 36.2301 196.69C24.4601 199.25 0.000135811 204.94 0.000135811 225.33C-0.0798642 253.86 35.2101 251.4 35.2101 251.4C35.2101 251.4 74.6101 249.7 81.7801 225.27L81.5701 27.22L137.28 106.76L142.23 107.22L142.48 83.58L82.4001 0.0100098ZM37.2201 247.77C35.4101 247.77 33.6401 247.55 31.9501 247.15C34.6401 246.61 37.2201 245.14 39.1501 243.16C42.6001 239.63 48.0101 235.14 47.7501 229.58C47.6201 226.79 47.2601 224.19 45.4001 222.11C44.1801 220.74 42.1501 220.32 40.3401 220.62C40.2701 220.63 40.2001 220.65 40.1201 220.67L40.5901 220.46C36.3201 220.27 32.2001 222.44 29.2101 225.5C26.2201 228.55 24.2001 232.42 22.4401 236.31C21.9701 237.35 21.5101 238.41 21.3801 239.54C21.3001 240.2 21.3601 240.86 21.5101 241.5C17.1101 237.33 14.3601 231.44 14.3601 224.9C14.3601 212.27 24.6001 202.03 37.2301 202.03C49.8601 202.03 60.1001 212.27 60.1001 224.9C60.1001 237.53 49.8601 247.77 37.2301 247.77H37.2201Z" fill="#E60105"/>
<path d="M210.54 0.0100002H194.09L194.35 199.9C194.35 199.9 176.14 194.13 164.37 196.69C152.6 199.25 128.14 204.94 128.14 225.33C128.06 253.86 163.35 251.4 163.35 251.4C163.35 251.4 202.75 249.7 209.2 223.19L208.99 25.14L265.42 106.75L270.37 107.21L270.62 83.57L210.54 0V0.0100002ZM165.35 247.77C163.54 247.77 161.77 247.55 160.08 247.15C162.77 246.61 165.35 245.14 167.28 243.16C170.73 239.63 176.14 235.14 175.88 229.58C175.75 226.79 175.39 224.19 173.53 222.11C172.31 220.74 170.28 220.32 168.47 220.62C168.4 220.63 168.33 220.65 168.25 220.67L168.72 220.46C164.45 220.27 160.33 222.44 157.34 225.5C154.35 228.55 152.33 232.42 150.57 236.31C150.1 237.35 149.64 238.41 149.51 239.54C149.43 240.2 149.49 240.86 149.64 241.5C145.24 237.33 142.49 231.44 142.49 224.9C142.49 212.27 152.73 202.03 165.36 202.03C177.99 202.03 188.23 212.27 188.23 224.9C188.23 237.53 177.99 247.77 165.36 247.77H165.35Z" fill="#E60105"/>
<path d="M45.6501 266.84C45.9701 266.1 47.2101 264.37 48.3701 264.53C49.1301 264.64 49.5701 265.51 49.6601 265.68C50.9501 268.03 61.2901 274.06 71.9301 276.63C74.3201 277.21 91.4201 281.11 108.58 274.11C118.87 269.92 132.51 264.36 135.3 261.68C135.54 261.45 136.56 260.42 137.58 260.64C138.51 260.84 139.19 262.04 139.27 263.05C139.43 265.05 137.26 266.74 136.25 267.51C125.72 275.5 120.46 279.49 118.47 280.46C109.14 285.03 104.48 287.31 97.4401 288.62C95.6201 288.96 73.9001 292.66 56.2601 280.2C51.0301 276.5 44.2701 270.06 45.6401 266.84H45.6501Z" fill="#E60105"/>
<path d="M510.97 192.51C504.05 191.09 496.94 194.4 491.57 198.99C484.62 204.93 479.59 213.43 479.05 222.56C478.51 231.69 482.97 241.25 490.98 245.66C500.08 250.67 511.4 248.42 521.18 244.93C539.38 238.43 554.79 232.23 571.21 222.05C562.14 238.81 548.8 261.83 544.5 271.42C537.31 287.44 518.56 325.54 504.81 367.72C508.47 368.09 513.75 367.61 517.42 367.98C522.88 351.02 533.79 323.31 539.26 310.74C547.55 291.67 554.43 275 573.22 241.85C598.49 197.26 599.5 193.08 599.5 193.08C596.42 193.66 593.87 187.74 590.76 188.11C586.28 188.64 582.32 197 579.17 200.23C565.71 214.02 553.62 222.06 530.83 228.79C535.12 222.53 539.9 218.32 538.14 210.93C537.37 207.7 535.44 204.84 533.19 202.4C528.44 197.23 522.09 193.56 515.24 192.02C509.43 190.71 502.52 191.29 498.73 195.88" fill="#E60105"/>
</svg>
